#N canvas 580 76 640 468 10;
#N canvas 152 38 326 467 afterimage 0;
#X obj 1 114 noise~;
#X obj 16 176 noise~;
#X obj 1 199 *~;
#X obj 1 241 bp~ 333 4;
#X obj 1 135 lop~ 3;
#X obj 1 220 clip~ -1 1;
#X obj 52 68 line;
#X obj 52 109 + 3;
#X obj 52 89 * 30;
#X obj 1 156 *~ 80;
#X obj 117 67 line;
#X obj 1 263 *~;
#X msg 52 48 1 \, 0 600;
#X msg 117 47 1 \, 0 6000;
#X obj 1 283 *~ 0.9;
#X obj 85 23 del 200;
#X obj 85 1 inlet;
#X obj 1 303 outlet~;
#X connect 0 0 4 0;
#X connect 1 0 2 1;
#X connect 2 0 5 0;
#X connect 3 0 11 0;
#X connect 4 0 9 0;
#X connect 5 0 3 0;
#X connect 6 0 8 0;
#X connect 7 0 4 1;
#X connect 8 0 7 0;
#X connect 9 0 2 0;
#X connect 10 0 11 1;
#X connect 11 0 14 0;
#X connect 12 0 6 0;
#X connect 13 0 10 0;
#X connect 14 0 17 0;
#X connect 15 0 12 0;
#X connect 15 0 13 0;
#X connect 16 0 15 0;
#X restore 248 91 pd afterimage;
#X obj 323 238 line;
#X obj 11 71 r go;
#X obj 248 68 r go;
#X obj 350 66 r go;
#X obj 128 70 r go;
#X obj 186 49 line;
#X msg 186 26 1 \, 0 9000;
#X obj 186 4 r go;
#X obj 323 193 r go;
#X obj 272 348 dac~;
#X obj 126 264 catch~ la;
#X obj 368 263 catch~ ra;
#X obj 465 115 tgl 15 0 empty empty empty 0 -6 0 8 #fcfcfc #000000 #000000 0 1;
#X obj 490 112 s shake;
#X obj 490 91 r go;
#X obj 12 12 bng 15 250 50 0 empty empty empty 0 -6 0 8 #fcfcfc #000000 #000000;
#X obj 12 34 s go;
#X msg 323 215 0 \, 1 12000;
#X obj 248 135 throw~ out;
#X obj 197 264 catch~ out;
#N canvas 132 138 259 609 rumble 0;
#X obj 17 110 noise~;
#X obj 33 314 -~ 0.5;
#X obj 33 339 *~;
#X obj 33 359 *~ -4;
#X obj 33 379 +~ 1;
#X obj 33 399 *~ 0.5;
#X obj 75 28 noise~;
#X obj 75 89 max~ 0;
#X obj 17 172 samphold~;
#X msg 938 102 0.54;
#X obj 75 151 phasor~;
#X obj 75 111 *~ 3000;
#X obj 17 419 *~;
#X obj 17 439 hip~ 100;
#X obj 17 192 rpole~ 0.99;
#X obj 17 212 *~ 0.04;
#X obj 75 131 +~ 1;
#X obj 81 -12 inlet density;
#X obj 17 131 lop~;
#X obj 17 152 lop~;
#X obj 75 68 lop~;
#X obj 75 48 lop~;
#X obj 1 480 outlet~;
#X obj 17 241 min~ 0;
#X obj 17 263 *~ -1;
#X obj 65 240 max~ 0;
#X obj 17 286 +~;
#X obj 1 28 vline~;
#X obj 1 459 *~;
#X obj 1 -12 inlet trig;
#X msg 1 8 1 50 \, 0 8000 50;
#X connect 0 0 18 0;
#X connect 1 0 2 0;
#X connect 1 0 2 1;
#X connect 2 0 3 0;
#X connect 3 0 4 0;
#X connect 4 0 5 0;
#X connect 5 0 12 1;
#X connect 6 0 21 0;
#X connect 7 0 11 0;
#X connect 8 0 14 0;
#X connect 10 0 8 1;
#X connect 11 0 16 0;
#X connect 12 0 13 0;
#X connect 13 0 28 1;
#X connect 14 0 15 0;
#X connect 15 0 25 0;
#X connect 15 0 23 0;
#X connect 16 0 10 0;
#X connect 17 0 20 1;
#X connect 17 0 21 1;
#X connect 17 0 18 1;
#X connect 17 0 19 1;
#X connect 18 0 19 0;
#X connect 19 0 8 0;
#X connect 20 0 7 0;
#X connect 21 0 20 0;
#X connect 23 0 24 0;
#X connect 24 0 26 0;
#X connect 25 0 26 1;
#X connect 26 0 1 0;
#X connect 26 0 12 0;
#X connect 27 0 28 0;
#X connect 28 0 22 0;
#X connect 29 0 30 0;
#X connect 30 0 27 0;
#X restore 128 93 pd rumble;
#N canvas 148 116 316 375 deep 0;
#X obj 8 -8 noise~;
#X obj 7 161 *~;
#X obj 84 115 *~;
#X obj 84 49 del 1000;
#X obj 84 28 inlet;
#X obj 7 181 outlet~;
#X obj 84 91 vline~;
#X msg 84 70 1 2000 \, 0 20000 2000;
#X obj 8 12 lop~ 80;
#X obj 8 32 lop~ 80;
#X obj 8 52 hip~ 15;
#X obj 8 92 clip~ -1 1;
#X obj 8 72 *~ 12;
#X obj 8 112 lop~ 80;
#X obj 8 132 lop~ 80;
#X connect 0 0 8 0;
#X connect 1 0 5 0;
#X connect 2 0 1 1;
#X connect 3 0 7 0;
#X connect 4 0 3 0;
#X connect 6 0 2 0;
#X connect 6 0 2 1;
#X connect 7 0 6 0;
#X connect 8 0 9 0;
#X connect 9 0 10 0;
#X connect 10 0 12 0;
#X connect 11 0 13 0;
#X connect 12 0 11 0;
#X connect 13 0 14 0;
#X connect 14 0 1 0;
#X restore 350 88 pd deep;
#X obj 11 135 throw~ out;
#X obj 11 115 *~ 0.3;
#X obj 129 114 *~ 0.3;
#X obj 350 111 *~ 0.5;
#X obj 186 71 * 1900;
#X obj 248 113 *~ 0.7;
#X obj 744 57 loadbang;
#X obj 821 95 tgl 25 0 empty empty empty 17 7 0 10 #191919 #e1e1e1 #e1e1e1 0 1;
#X obj 736 138 metro 1500 10 msec;
#X obj 110 151 throw~ Libs/distance;
#X obj 330 145 throw~ Libs/distance;
#X obj 272 173 catch~ Libs/distance;
#X obj 272 262 distance;
#N canvas 265 516 556 283 boxOfDelays 0;
#X obj 319 51 switch~;
#X obj 319 29 inlet;
#X obj 17 103 udly 12000;
#X obj 27 113 udly 12000;
#X obj 37 123 udly 12000;
#X obj 47 133 udly 12000;
#X obj 57 143 udly 12000;
#X obj 67 153 udly 12000;
#X obj 77 163 udly 12000;
#X obj 87 173 udly 12000;
#X obj 195 107 udly 12000;
#X obj 205 117 udly 12000;
#X obj 215 127 udly 12000;
#X obj 225 137 udly 12000;
#X obj 235 147 udly 12000;
#X obj 245 157 udly 12000;
#X obj 255 167 udly 12000;
#X obj 265 177 udly 12000;
#X obj 361 104 udly 12000;
#X obj 371 114 udly 12000;
#X obj 381 124 udly 12000;
#X obj 391 134 udly 12000;
#X obj 401 144 udly 12000;
#X obj 411 154 udly 12000;
#X obj 421 164 udly 12000;
#X obj 431 174 udly 12000;
#X connect 1 0 0 0;
#X restore 465 135 pd boxOfDelays;
#N canvas 264 575 319 257 Libs/strikeSound 0;
#X obj 0 172 outlet~;
#X obj 1 44 route 0 1 2 3;
#X obj 1 0 inlet;
#X obj 1 67 strikeSound;
#X obj 22 87 strikeSound;
#X obj 44 107 strikeSound;
#X obj 65 126 strikeSound;
#X obj 1 23 strike-pattern;
#X connect 1 0 3 0;
#X connect 1 1 4 0;
#X connect 1 2 5 0;
#X connect 1 3 6 0;
#X connect 2 0 7 0;
#X connect 3 0 0 0;
#X connect 4 0 0 0;
#X connect 5 0 0 0;
#X connect 6 0 0 0;
#X connect 7 0 1 0;
#X restore 11 94 pd Libs/strikeSound;
#X obj 291 289 s~ Libs/udly;
#X connect 0 0 28 0;
#X connect 1 0 35 1;
#X connect 2 0 37 0;
#X connect 3 0 0 0;
#X connect 4 0 22 0;
#X connect 5 0 21 0;
#X connect 6 0 27 0;
#X connect 7 0 6 0;
#X connect 8 0 7 0;
#X connect 9 0 18 0;
#X connect 11 0 10 0;
#X connect 12 0 10 1;
#X connect 13 0 36 0;
#X connect 15 0 14 0;
#X connect 16 0 17 0;
#X connect 18 0 1 0;
#X connect 20 0 10 0;
#X connect 20 0 10 1;
#X connect 21 0 25 0;
#X connect 22 0 26 0;
#X connect 24 0 23 0;
#X connect 25 0 32 0;
#X connect 26 0 33 0;
#X connect 27 0 21 1;
#X connect 28 0 19 0;
#X connect 29 0 30 0;
#X connect 30 0 31 0;
#X connect 31 0 16 0;
#X connect 34 0 35 0;
#X connect 35 0 10 0;
#X connect 35 0 10 1;
#X connect 35 0 38 0;
#X connect 37 0 24 0;
