#N canvas 0 25 1440 847 12;
#X obj 20 88 r trig1_\$0;
#X floatatom -1514 37 5 0 0 0 - - - 0;
#X floatatom -247 -399 5 0 0 0 - - - 0;
#X obj 109 83 r fIn1_\$0;
#X obj 135 37 tgl 19 0 empty empty empty 0 -10 0 12 #fcfcfc #000000 #000000 0 1;
#X obj 96 61 spigot;
#X obj 20 112 bng 19 250 50 0 empty empty empty 0 -10 0 12 #fcfcfc #000000 #000000;
#X obj 182 60 r r1_\$0;
#X floatatom 182 112 5 0 0 0 - - - 0;
#X floatatom 264 113 5 0 0 0 - - - 0;
#X floatatom 345 112 5 0 0 0 - - - 0;
#X floatatom 434 113 5 0 0 0 - - - 0;
#X floatatom 110 114 5 0 0 0 - - - 0;
#X obj 345 89 r f1Min_\$0;
#X obj 434 89 r f1Max_\$0;
#X obj 508 60 r dDPossiveis1_\$0, f 8;
#X listbox 508 111 10 0 0 0 - - - 0;
#X listbox 589 111 9 0 0 0 - - - 0;
#X obj 588 60 r nDDistancias1_\$0, f 8;
#X floatatom 752 110 5 0 0 0 - - - 0;
#X obj 834 109 hradio 19 1 0 3 empty empty empty 0 -10 0 12 #fcfcfc #000000 #000000 0;
#X listbox 669 111 9 0 0 0 - - - 0;
#X obj 669 86 r mults1_\$0;
#X obj 916 93 vradio 19 1 0 2 empty empty empty 0 -10 0 12 #fcfcfc #000000 #000000 0;
#X obj 916 39 r voz2Ativa_\$0, f 9;
#X obj 996 47 r voz2Harmonico_\$0, f 7;
#X obj 1078 93 vradio 19 1 0 2 empty empty empty 0 -10 0 12 #fcfcfc #000000 #000000 0;
#X obj 1078 39 r voz3Ativa_\$0, f 9;
#X obj 1160 49 r voz3Harmonico_\$0, f 7;
#X obj 1240 93 vradio 19 1 0 2 empty empty empty 0 -10 0 12 #fcfcfc #000000 #000000 0;
#X floatatom 1160 115 5 0 0 0 - - - 0;
#X floatatom 996 113 5 0 0 0 - - - 0;
#X floatatom 1322 114 5 0 0 0 - - - 0;
#X obj 1240 39 r voz4Ativa_\$0, f 9;
#X obj 1322 48 r voz4Harmonico_\$0, f 7;
#X obj 1404 93 vradio 19 1 0 2 empty empty empty 0 -10 0 12 #fcfcfc #000000 #000000 0;
#X floatatom 1485 114 5 0 0 0 - - - 0;
#X obj 1404 39 r voz5Ativa_\$0, f 9;
#X obj 1485 48 r voz5Harmonico_\$0, f 7;
#X floatatom 1565 114 5 0 0 0 - - - 0;
#X floatatom 1648 114 5 0 0 0 - - - 0;
#X floatatom 1729 114 5 0 0 0 - - - 0;
#X floatatom 1810 114 5 0 0 0 - - - 0;
#X obj 1893 109 bng 19 250 50 0 empty empty empty 0 -10 0 12 #fcfcfc #000000 #000000;
#X floatatom -1714 2171 5 0 0 0 - - - 0;
#X floatatom -1694 2842 5 0 0 0 - - - 0;
#X floatatom -3412 1710 5 0 0 0 - - - 0;
#X obj 20 180 s f1_\$0;
#X obj 287 164 s voz1Harmonico_\$0;
#X obj 555 162 s voz2Harmonico_\$0;
#X obj 1092 163 s voz4Harmonico_\$0;
#X obj 823 160 s voz3Harmonico_\$0;
#X obj 1357 165 s voz5Harmonico_\$0;
#X obj 138 227 tgl 19 0 empty empty empty 0 -10 0 12 #fcfcfc #000000 #000000 0 1;
#X obj 96 250 spigot;
#X obj 20 301 bng 19 250 50 0 empty empty empty 0 -10 0 12 #fcfcfc #000000 #000000;
#X floatatom 182 301 5 0 0 0 - - - 0;
#X floatatom 264 302 5 0 0 0 - - - 0;
#X floatatom 359 301 5 0 0 0 - - - 0;
#X floatatom 438 303 5 0 0 0 - - - 0;
#X floatatom 109 303 5 0 0 0 - - - 0;
#X listbox 508 300 10 0 0 0 - - - 0;
#X listbox 589 300 9 0 0 0 - - - 0;
#X floatatom 752 299 5 0 0 0 - - - 0;
#X obj 834 298 hradio 19 1 0 3 empty empty empty 0 -10 0 12 #fcfcfc #000000 #000000 0;
#X listbox 669 300 9 0 0 0 - - - 0;
#X obj 916 282 vradio 19 1 0 2 empty empty empty 0 -10 0 12 #fcfcfc #000000 #000000 0;
#X obj 1078 282 vradio 19 1 0 2 empty empty empty 0 -10 0 12 #fcfcfc #000000 #000000 0;
#X obj 1078 228 r voz3Ativa_\$0, f 9;
#X obj 1160 238 r voz3Harmonico_\$0, f 7;
#X obj 1240 282 vradio 19 1 0 2 empty empty empty 0 -10 0 12 #fcfcfc #000000 #000000 0;
#X floatatom 1160 304 5 0 0 0 - - - 0;
#X floatatom 996 302 5 0 0 0 - - - 0;
#X floatatom 1322 303 5 0 0 0 - - - 0;
#X obj 1240 228 r voz4Ativa_\$0, f 9;
#X obj 1322 237 r voz4Harmonico_\$0, f 7;
#X obj 1404 282 vradio 19 1 0 2 empty empty empty 0 -10 0 12 #fcfcfc #000000 #000000 0;
#X floatatom 1485 303 5 0 0 0 - - - 0;
#X obj 1404 228 r voz5Ativa_\$0, f 9;
#X obj 1485 237 r voz5Harmonico_\$0, f 7;
#X floatatom 1565 303 5 0 0 0 - - - 0;
#X floatatom 1648 303 5 0 0 0 - - - 0;
#X floatatom 1729 303 5 0 0 0 - - - 0;
#X floatatom 1810 303 5 0 0 0 - - - 0;
#X obj 1893 298 bng 19 250 50 0 empty empty empty 0 -10 0 12 #fcfcfc #000000 #000000;
#X obj 1092 352 s voz4Harmonico_\$0;
#X obj 823 349 s voz3Harmonico_\$0;
#X obj 1357 354 s voz5Harmonico_\$0;
#X obj 96 203 r f2_\$0;
#X obj 20 277 r trig2_\$0;
#X obj 109 272 r fIn2_\$0;
#X obj 345 278 r f2Min_\$0;
#X obj 434 278 r f2Max_\$0;
#X obj 508 249 r dDPossiveis2_\$0, f 8;
#X obj 589 249 r nDDistancias2_\$0, f 8;
#X obj 669 275 r mults2_\$0;
#X obj 752 87 r prox1_\$0;
#X obj 752 276 r prox2_\$0;
#X obj 834 52 r proxTipo1_\$0, f 9;
#X obj 834 241 r proxTipo2_\$0, f 9;
#X obj 916 228 r voz1Ativa_\$0, f 9;
#X obj 996 236 r voz1Harmonico_\$0, f 7;
#X obj 1565 248 r f1_\$0;
#X obj 1565 59 r f2_\$0;
#X obj 1648 59 r f3_\$0;
#X obj 1729 59 r f4_\$0;
#X obj 1810 59 r f5_\$0;
#X obj 1648 248 r f3_\$0;
#X obj 1729 248 r f4_\$0;
#X obj 1810 248 r f5_\$0;
#X obj 138 407 tgl 19 0 empty empty empty 0 -10 0 12 #fcfcfc #000000 #000000 0 1;
#X obj 96 430 spigot;
#X obj 20 481 bng 19 250 50 0 empty empty empty 0 -10 0 12 #fcfcfc #000000 #000000;
#X floatatom 182 481 5 0 0 0 - - - 0;
#X floatatom 264 482 5 0 0 0 - - - 0;
#X floatatom 345 481 5 0 0 0 - - - 0;
#X floatatom 434 482 5 0 0 0 - - - 0;
#X floatatom 109 483 5 0 0 0 - - - 0;
#X listbox 508 480 10 0 0 0 - - - 0;
#X listbox 589 480 9 0 0 0 - - - 0;
#X floatatom 752 479 5 0 0 0 - - - 0;
#X obj 834 478 hradio 19 1 0 3 empty empty empty 0 -10 0 12 #fcfcfc #000000 #000000 0;
#X listbox 669 480 9 0 0 0 - - - 0;
#X obj 916 462 vradio 19 1 0 2 empty empty empty 0 -10 0 12 #fcfcfc #000000 #000000 0;
#X obj 1078 462 vradio 19 1 0 2 empty empty empty 0 -10 0 12 #fcfcfc #000000 #000000 0;
#X obj 1240 462 vradio 19 1 0 2 empty empty empty 0 -10 0 12 #fcfcfc #000000 #000000 0;
#X floatatom 1160 484 5 0 0 0 - - - 0;
#X floatatom 996 482 5 0 0 0 - - - 0;
#X floatatom 1322 483 5 0 0 0 - - - 0;
#X obj 1240 408 r voz4Ativa_\$0, f 9;
#X obj 1322 417 r voz4Harmonico_\$0, f 7;
#X obj 1404 462 vradio 19 1 0 2 empty empty empty 0 -10 0 12 #fcfcfc #000000 #000000 0;
#X floatatom 1485 483 5 0 0 0 - - - 0;
#X obj 1404 408 r voz5Ativa_\$0, f 9;
#X obj 1485 417 r voz5Harmonico_\$0, f 7;
#X floatatom 1565 483 5 0 0 0 - - - 0;
#X floatatom 1648 483 5 0 0 0 - - - 0;
#X floatatom 1729 483 5 0 0 0 - - - 0;
#X floatatom 1810 483 5 0 0 0 - - - 0;
#X obj 1893 478 bng 19 250 50 0 empty empty empty 0 -10 0 12 #fcfcfc #000000 #000000;
#X obj 1092 532 s voz4Harmonico_\$0;
#X obj 1357 534 s voz5Harmonico_\$0;
#X obj 996 416 r voz1Harmonico_\$0, f 7;
#X obj 1565 428 r f1_\$0;
#X obj 1729 428 r f4_\$0;
#X obj 1810 428 r f5_\$0;
#X obj 20 559 s f3_\$0;
#X obj 20 369 s f2_\$0;
#X obj 554 531 s voz1Harmonico_\$0;
#X obj 823 529 s voz2Harmonico_\$0;
#X obj 20 457 r trig3_\$0;
#X obj 96 383 r f3_\$0;
#X obj 109 452 r fIn3_\$0;
#X obj 345 458 r f3Min_\$0;
#X obj 434 458 r f3Max_\$0;
#X obj 506 429 r dDPossiveis3_\$0, f 8;
#X obj 589 429 r nDDistancias3_\$0, f 8;
#X obj 669 455 r mults3_\$0;
#X obj 752 456 r prox3_\$0;
#X obj 834 421 r proxTipo3_\$0, f 9;
#X obj 916 408 r voz1Ativa_\$0, f 9;
#X obj 1078 408 r voz2Ativa_\$0, f 9;
#X obj 1160 418 r voz2Harmonico_\$0, f 7;
#X obj 1648 428 r f2_\$0;
#X obj 184 -365 key;
#X floatatom 184 -340 5 0 0 0 - - - 0;
#X obj 184 -292 bng 19 250 50 0 empty empty empty 0 -10 0 12 #fcfcfc #000000 #000000;
#X floatatom 314 -180 5 0 0 0 - - - 0;
#X obj 314 -132 bng 19 250 50 0 empty empty empty 0 -10 0 12 #fcfcfc #000000 #000000;
#X obj 314 -205 keyup;
#X obj 184 -208 spigot;
#X msg 223 -239 1;
#X obj 184 -185 bng 19 250 50 0 empty empty empty 0 -10 0 12 #fcfcfc #000000 #000000;
#X obj 184 -269 t b b;
#X msg 241 -265 0;
#X msg 184 -161 1;
#X msg 314 -108 0;
#X obj 184 -78 s voz1Ativa_\$0;
#X obj 184 -134 t f b, f 6;
#X obj 216 -110 s trig1_\$0;
#X obj 398 -362 key;
#X floatatom 398 -337 5 0 0 0 - - - 0;
#X obj 398 -289 bng 19 250 50 0 empty empty empty 0 -10 0 12 #fcfcfc #000000 #000000;
#X floatatom 528 -177 5 0 0 0 - - - 0;
#X obj 528 -129 bng 19 250 50 0 empty empty empty 0 -10 0 12 #fcfcfc #000000 #000000;
#X obj 528 -202 keyup;
#X obj 398 -205 spigot;
#X msg 437 -236 1;
#X obj 398 -182 bng 19 250 50 0 empty empty empty 0 -10 0 12 #fcfcfc #000000 #000000;
#X obj 398 -266 t b b;
#X msg 455 -262 0;
#X msg 398 -158 1;
#X msg 528 -105 0;
#X obj 398 -131 t f b;
#X obj 430 -107 s trig2_\$0;
#X obj 398 -75 s voz2Ativa_\$0;
#X obj 608 -362 key;
#X floatatom 608 -337 5 0 0 0 - - - 0;
#X obj 608 -289 bng 19 250 50 0 empty empty empty 0 -10 0 12 #fcfcfc #000000 #000000;
#X floatatom 738 -177 5 0 0 0 - - - 0;
#X obj 738 -129 bng 19 250 50 0 empty empty empty 0 -10 0 12 #fcfcfc #000000 #000000;
#X obj 738 -202 keyup;
#X obj 608 -205 spigot;
#X msg 647 -236 1;
#X obj 608 -182 bng 19 250 50 0 empty empty empty 0 -10 0 12 #fcfcfc #000000 #000000;
#X obj 608 -266 t b b;
#X msg 665 -262 0;
#X msg 608 -158 1;
#X msg 738 -105 0;
#X obj 608 -131 t f b;
#X obj 640 -107 s trig3_\$0;
#X obj 608 -75 s voz3Ativa_\$0;
#X floatatom 20 349 5 0 0 0 - - - 0;
#X floatatom 20 159 5 0 0 0 - - - 0;
#X obj -1180 2048 catch~ fold_\$0;
#X obj -1180 2235 *~;
#X obj -1154 2081 hsl 162 19 0 127 0 0 empty empty empty -2 -10 0 12 #fcfcfc #000000 #000000 0 1;
#X obj -1157 2105 / 127;
#X obj -1157 2175 vline~;
#X obj -1157 2128 pow 2;
#X msg -1157 2152 \$1 100;
#X obj -1052 2132 r foldAmp_\$0;
#X floatatom 20 529 5 0 0 0 - - - 0;
#X obj -1157 2198 *~ 5.5;
#X obj -1954 1346 s att_\$0;
#X floatatom -1958 1311 5 0 0 0 - - - 0;
#X floatatom -1873 1313 5 0 0 0 - - - 0;
#X obj -1869 1348 s rel_\$0;
#X obj -367 34 r voz1Harmonico_\$0;
#X floatatom -367 58 5 0 0 0 - - - 36;
#X floatatom -367 148 5 0 0 0 - - - 36;
#X floatatom -367 248 5 0 0 0 - - - 36;
#X obj -367 224 r voz3Harmonico_\$0;
#X floatatom -527 58 5 0 0 0 - - - 36;
#X obj -527 34 r f1_\$0;
#X floatatom -527 148 5 0 0 0 - - - 36;
#X obj -527 124 r f2_\$0;
#X floatatom -527 248 5 0 0 0 - - - 36;
#X obj -527 224 r f3_\$0;
#X floatatom 272 356 5 0 0 0 - - - 0;
#X floatatom 324 411 5 0 0 0 - - - 0;
#X obj -367 124 r voz2Harmonico_\$0;
#X obj 272 379 s voz2Harmonico_\$0;
#X obj 555 351 s voz1Harmonico_\$0;
#X floatatom 288 544 5 0 0 0 - - - 0;
#X obj 288 567 s voz3Harmonico_\$0;
#X obj 2358 889 t b b b b b, f 55;
#X obj 2740 967 spigot;
#X obj 2779 913 r voz5Ativa_\$0, f 6;
#X obj 2740 1060 f;
#X obj 2758 993 r voz5Harmonico_\$0, f 8;
#X obj 2650 966 spigot;
#X obj 2650 1050 f;
#X obj 2688 915 r voz4Ativa_\$0, f 6;
#X obj 2668 992 r voz4Harmonico_\$0, f 8;
#X obj 2550 966 spigot;
#X obj 2550 1050 f;
#X obj 2460 966 spigot;
#X obj 2460 1050 f;
#X obj 2357 966 spigot;
#X obj 2357 1050 f;
#X floatatom 2700 1181 5 0 0 0 - - - 0;
#X obj 2327 1212 bng 19 250 50 0 empty empty empty 0 -10 0 12 #fcfcfc #000000 #000000;
#X floatatom 2411 971 5 0 0 0 - - - 0;
#X obj 2588 915 r voz3Ativa_\$0, f 6;
#X obj 2568 992 r voz3Harmonico_\$0, f 8;
#X obj 2498 915 r voz2Ativa_\$0, f 6;
#X obj 2478 993 r voz2Harmonico_\$0, f 8;
#X obj 2395 915 r voz1Ativa_\$0, f 6;
#X obj 2375 992 r voz1Harmonico_\$0, f 8;
#X obj 2700 1203 s coPrimo_\$0;
#X obj 2325 933 t b b;
#X obj 2327 1236 t b b b b b, f 56;
#X obj 2717 1319 spigot;
#X obj 2756 1265 r voz5Ativa_\$0, f 6;
#X obj 2619 1318 spigot;
#X obj 2657 1267 r voz4Ativa_\$0, f 6;
#X obj 2521 1318 spigot;
#X obj 2432 1318 spigot;
#X obj 2329 1318 spigot;
#X floatatom 2383 1323 5 0 0 0 - - - 0;
#X obj 2559 1267 r voz3Ativa_\$0, f 6;
#X obj 2470 1267 r voz2Ativa_\$0, f 6;
#X obj 2367 1267 r voz1Ativa_\$0, f 6;
#X obj 2329 1402 f;
#X obj 2347 1346 r voz1Harmonico_\$0, f 8;
#X obj 2329 1478 /;
#X obj 2347 1426 r coPrimo_\$0, f 7;
#X obj 2429 1402 f;
#X obj 2429 1478 /;
#X obj 2447 1426 r coPrimo_\$0, f 7;
#X obj 2529 1402 f;
#X obj 2529 1478 /;
#X obj 2547 1426 r coPrimo_\$0, f 7;
#X obj 2616 1402 f;
#X obj 2616 1478 /;
#X obj 2634 1426 r coPrimo_\$0, f 7;
#X obj 2716 1402 f;
#X obj 2716 1478 /;
#X obj 2734 1426 r coPrimo_\$0, f 7;
#X obj 2734 1346 r voz5Harmonico_\$0, f 8;
#X obj 2634 1346 r voz4Harmonico_\$0, f 8;
#X obj 2547 1346 r voz3Harmonico_\$0, f 8;
#X obj 2447 1346 r voz2Harmonico_\$0, f 8;
#X msg 2840 1116 0;
#X obj 2358 862 t b b, f 69;
#X floatatom 2282 1518 5 0 0 0 - - - 0;
#X floatatom 2466 1574 5 0 0 0 - - - 0;
#X floatatom 2557 1569 5 0 0 0 - - - 0;
#X floatatom 2622 1581 5 0 0 0 - - - 0;
#X floatatom 2722 1580 5 0 0 0 - - - 0;
#X obj 2624 832 r trig_\$0;
#X obj 2276 1168 t b b;
#X obj 2329 1501 s voz1Harmonico_\$0, f 10;
#X obj 2429 1501 s voz2Harmonico_\$0, f 10;
#X obj 2529 1501 s voz3Harmonico_\$0, f 10;
#X obj 2616 1501 s voz4Harmonico_\$0, f 10;
#X obj 2716 1502 s voz5Harmonico_\$0, f 10;
#X obj 2640 1181 mdc08;
#X obj 2197 429 r trig1_\$0;
#X obj 2207 459 r trig2_\$0;
#X obj 2227 489 r trig3_\$0;
#X obj 2247 519 r trig4_\$0;
#X obj 2277 549 r trig5_\$0;
#X obj 2193 595 bng 19 250 50 0 empty empty empty 0 -10 0 12 #fcfcfc #000000 #000000;
#X obj 2193 619 s trig_\$0;
#X obj -207 34 r voz1Ativa_\$0;
#X obj -207 58 tgl 40 0 empty empty empty 0 -10 0 12 #ffc7c6 #00ff04 #000000 0 1;
#X obj -207 148 tgl 40 0 empty empty empty 0 -10 0 12 #ffc7c6 #00ff04 #000000 0 1;
#X obj -207 124 r voz2Ativa_\$0;
#X obj -207 251 tgl 40 0 empty empty empty 0 -10 0 12 #ffc7c6 #00ff04 #000000 0 1;
#X obj -207 227 r voz3Ativa_\$0;
#X obj -433 1611 bng 19 250 50 0 empty empty empty 0 -10 0 12 #fcfcfc #000000 #000000;
#X obj -1718 1608 f;
#X obj -1718 1562 t b f, f 11;
#X obj -1571 1608 r att_\$0;
#X obj -1424 1608 r velOnOff_\$0;
#X obj -1324 1612 bng 19 250 50 0 empty empty empty 0 -10 0 12 #fcfcfc #000000 #000000;
#X obj -1700 1585 r f2_\$0;
#X obj -1278 1607 f;
#X obj -1278 1561 t b f, f 11;
#X obj -1131 1607 r att_\$0;
#X obj -1058 1607 r rel_\$0;
#X obj -984 1607 r velOnOff_\$0;
#X obj -884 1611 bng 19 250 50 0 empty empty empty 0 -10 0 12 #fcfcfc #000000 #000000;
#X obj -827 1607 f;
#X obj -827 1561 t b f, f 11;
#X obj -680 1607 r att_\$0;
#X obj -607 1607 r rel_\$0;
#X obj -533 1607 r velOnOff_\$0;
#X obj -809 1584 r f4_\$0;
#X obj -397 1606 f;
#X obj -397 1560 t b f, f 11;
#X obj -250 1606 r att_\$0;
#X obj -177 1606 r rel_\$0;
#X obj -155 1568 r velOnOff_\$0;
#X obj -379 1583 r f5_\$0;
#X obj -1260 1584 r f3_\$0;
#X obj -2180 1608 f;
#X obj -2180 1562 t b f, f 11;
#X obj -2033 1608 r att_\$0;
#X obj -1960 1608 r rel_\$0;
#X obj -1886 1587 r velOnOff_\$0;
#X obj -1757 1583 bng 19 250 50 0 empty empty empty 0 -10 0 12 #fcfcfc #000000 #000000;
#X obj -2162 1585 r f1_\$0;
#X floatatom -2048 1560 5 0 0 0 - - - 0;
#X obj -2180 1631 poly13, f 53;
#X obj -1718 1631 poly13, f 53;
#X obj -1278 1630 poly13, f 53;
#X floatatom -1834 1510 5 0 0 0 - - - 0;
#X obj -833 1468 ctlin 85;
#X obj -833 1492 / 127;
#X obj -828 1630 poly13, f 53;
#X obj -398 1629 poly13, f 53;
#X obj -835 1408 r fold_\$0;
#X obj -2180 1806 *~;
#X obj -2156 1664 hsl 162 19 0 127 0 0 empty empty empty -2 -10 0 12 #fcfcfc #000000 #000000 0 1;
#X obj -2159 1688 / 127;
#X obj -2159 1758 vline~;
#X obj -2159 1711 pow 2;
#X obj -2054 1715 r 1Amp_\$0;
#X msg -2159 1735 \$1 100;
#X obj -2180 1838 throw~ fold_\$0;
#X obj -1719 1818 *~;
#X obj -1695 1676 hsl 162 19 0 127 0 0 empty empty empty -2 -10 0 12 #fcfcfc #000000 #000000 0 1;
#X obj -1698 1700 / 127;
#X obj -1698 1770 vline~;
#X obj -1698 1723 pow 2;
#X msg -1698 1747 \$1 100;
#X obj -1719 1850 throw~ fold_\$0;
#X obj -1278 1817 *~;
#X obj -1254 1675 hsl 162 19 0 127 0 0 empty empty empty -2 -10 0 12 #fcfcfc #000000 #000000 0 1;
#X obj -1257 1699 / 127;
#X obj -1257 1769 vline~;
#X obj -1257 1722 pow 2;
#X msg -1257 1746 \$1 100;
#X obj -1278 1849 throw~ fold_\$0;
#X obj -829 1801 *~;
#X obj -805 1659 hsl 162 19 0 127 0 0 empty empty empty -2 -10 0 12 #fcfcfc #000000 #000000 0 1;
#X obj -808 1683 / 127;
#X obj -808 1753 vline~;
#X obj -808 1706 pow 2;
#X msg -808 1730 \$1 100;
#X obj -829 1833 throw~ fold_\$0;
#X obj -397 1798 *~;
#X obj -373 1656 hsl 162 19 0 127 0 0 empty empty empty -2 -10 0 12 #fcfcfc #000000 #000000 0 1;
#X obj -376 1680 / 127;
#X obj -376 1750 vline~;
#X obj -376 1703 pow 2;
#X obj -376 1773 *~ 2.5;
#X msg -376 1727 \$1 100;
#X obj -397 1830 throw~ fold_\$0;
#X obj -271 1707 r 5Amp_\$0;
#X obj -703 1711 r 4Amp_\$0;
#X obj -1152 1726 r 3Amp_\$0;
#X obj -1593 1727 r 2Amp_\$0;
#X obj -2180 1539 r voz1Ativa_\$0;
#X obj -1718 1539 r voz2Ativa_\$0;
#X obj -1278 1538 r voz3Ativa_\$0;
#X obj -827 1538 r voz4Ativa_\$0;
#X obj -398 1537 r voz5Ativa_\$0;
#X floatatom -2217 1694 5 0 0 0 - - - 0;
#X obj -1698 1793 *~ 6.5;
#X obj -2159 1781 *~ 6.5;
#X obj -1257 1792 *~ 6.5;
#X obj -808 1776 *~ 6.5;
#X obj -1531 1576 r rel_\$0;
#X obj -1801 1531 r lb_\$0;
#X obj 167 -32 bng 19 250 50 0 empty empty empty 0 -10 0 12 #fcfcfc #000000 #000000;
#X floatatom 182 87 5 0 0 0 - - - 0;
#X floatatom 182 277 5 0 0 0 - - - 0;
#X obj 182 250 r r2_\$0;
#X floatatom 182 456 5 0 0 0 - - - 0;
#X obj 182 429 r r3_\$0;
#X obj -1950 1227 r lb_\$0;
#X obj -1950 1275 unpack;
#X obj 96 14 r f1_\$0;
#X obj 20 136 shoggoth54, f 268;
#X obj 20 325 shoggoth54, f 268;
#X obj 20 505 shoggoth54, f 268;
#X obj 829 -357 key;
#X floatatom 829 -332 5 0 0 0 - - - 0;
#X obj 829 -284 bng 19 250 50 0 empty empty empty 0 -10 0 12 #fcfcfc #000000 #000000;
#X floatatom 959 -172 5 0 0 0 - - - 0;
#X obj 959 -124 bng 19 250 50 0 empty empty empty 0 -10 0 12 #fcfcfc #000000 #000000;
#X obj 959 -197 keyup;
#X obj 829 -200 spigot;
#X msg 868 -231 1;
#X obj 829 -177 bng 19 250 50 0 empty empty empty 0 -10 0 12 #fcfcfc #000000 #000000;
#X obj 829 -261 t b b;
#X msg 886 -257 0;
#X msg 829 -153 1;
#X msg 959 -100 0;
#X obj 829 -126 t f b;
#X obj 1039 -357 key;
#X floatatom 1039 -332 5 0 0 0 - - - 0;
#X obj 1039 -284 bng 19 250 50 0 empty empty empty 0 -10 0 12 #fcfcfc #000000 #000000;
#X floatatom 1169 -172 5 0 0 0 - - - 0;
#X obj 1169 -124 bng 19 250 50 0 empty empty empty 0 -10 0 12 #fcfcfc #000000 #000000;
#X obj 1169 -197 keyup;
#X obj 1039 -200 spigot;
#X msg 1078 -231 1;
#X obj 1039 -177 bng 19 250 50 0 empty empty empty 0 -10 0 12 #fcfcfc #000000 #000000;
#X obj 1039 -261 t b b;
#X msg 1096 -257 0;
#X msg 1039 -153 1;
#X msg 1169 -100 0;
#X obj 1039 -126 t f b;
#X obj 184 -317 sel 113;
#X obj 398 -314 sel 119;
#X obj 314 -157 sel 113;
#X obj 528 -154 sel 119;
#X obj 738 -154 sel 101;
#X obj 608 -314 sel 101;
#X obj 829 -308 sel 114;
#X obj 959 -149 sel 114;
#X obj 829 -70 s voz4Ativa_\$0;
#X obj 1039 -70 s voz5Ativa_\$0;
#X obj 1071 -102 s trig5_\$0;
#X obj 862 -102 s trig4_\$0;
#X obj 138 617 tgl 19 0 empty empty empty 0 -10 0 12 #fcfcfc #000000 #000000 0 1;
#X obj 96 640 spigot;
#X obj 20 691 bng 19 250 50 0 empty empty empty 0 -10 0 12 #fcfcfc #000000 #000000;
#X floatatom 182 691 5 0 0 0 - - - 0;
#X floatatom 264 692 5 0 0 0 - - - 0;
#X floatatom 345 691 5 0 0 0 - - - 0;
#X floatatom 434 692 5 0 0 0 - - - 0;
#X floatatom 109 693 5 0 0 0 - - - 0;
#X listbox 508 690 10 0 0 0 - - - 0;
#X listbox 589 690 9 0 0 0 - - - 0;
#X floatatom 752 689 5 0 0 0 - - - 0;
#X obj 834 688 hradio 19 1 0 3 empty empty empty 0 -10 0 12 #fcfcfc #000000 #000000 0;
#X listbox 669 690 9 0 0 0 - - - 0;
#X obj 916 672 vradio 19 1 0 2 empty empty empty 0 -10 0 12 #fcfcfc #000000 #000000 0;
#X obj 1078 672 vradio 19 1 0 2 empty empty empty 0 -10 0 12 #fcfcfc #000000 #000000 0;
#X obj 1240 672 vradio 19 1 0 2 empty empty empty 0 -10 0 12 #fcfcfc #000000 #000000 0;
#X floatatom 1160 694 5 0 0 0 - - - 0;
#X floatatom 996 692 5 0 0 0 - - - 0;
#X floatatom 1322 693 5 0 0 0 - - - 0;
#X obj 1404 672 vradio 19 1 0 2 empty empty empty 0 -10 0 12 #fcfcfc #000000 #000000 0;
#X floatatom 1485 693 5 0 0 0 - - - 0;
#X obj 1404 618 r voz5Ativa_\$0, f 9;
#X obj 1485 627 r voz5Harmonico_\$0, f 7;
#X floatatom 1565 693 5 0 0 0 - - - 0;
#X floatatom 1648 693 5 0 0 0 - - - 0;
#X floatatom 1729 693 5 0 0 0 - - - 0;
#X floatatom 1810 693 5 0 0 0 - - - 0;
#X obj 1893 688 bng 19 250 50 0 empty empty empty 0 -10 0 12 #fcfcfc #000000 #000000;
#X obj 1357 744 s voz5Harmonico_\$0;
#X obj 916 618 r voz1Ativa_\$0, f 9;
#X obj 996 626 r voz1Harmonico_\$0, f 7;
#X obj 1565 638 r f1_\$0;
#X obj 1810 638 r f5_\$0;
#X obj 2213 484 r lb_\$0;
#X obj 2213 511 bng 19 250 50 0 empty empty empty 0 -10 0 12 #fcfcfc #000000 #000000;
#X floatatom 20 739 5 0 0 0 - - - 0;
#X floatatom 272 746 5 0 0 0 - - - 0;
#X obj 555 741 s voz1Harmonico_\$0;
#X floatatom 182 667 5 0 0 0 - - - 0;
#X obj 20 715 shoggoth54, f 268;
#X obj 137 816 tgl 19 0 empty empty empty 0 -10 0 12 #fcfcfc #000000 #000000 0 1;
#X obj 95 839 spigot;
#X obj 19 890 bng 19 250 50 0 empty empty empty 0 -10 0 12 #fcfcfc #000000 #000000;
#X floatatom 181 890 5 0 0 0 - - - 0;
#X floatatom 263 891 5 0 0 0 - - - 0;
#X floatatom 344 890 5 0 0 0 - - - 0;
#X floatatom 433 891 5 0 0 0 - - - 0;
#X floatatom 108 892 5 0 0 0 - - - 0;
#X listbox 507 889 10 0 0 0 - - - 0;
#X listbox 588 889 9 0 0 0 - - - 0;
#X floatatom 751 888 5 0 0 0 - - - 0;
#X obj 833 887 hradio 19 1 0 3 empty empty empty 0 -10 0 12 #fcfcfc #000000 #000000 0;
#X listbox 668 889 9 0 0 0 - - - 0;
#X obj 915 871 vradio 19 1 0 2 empty empty empty 0 -10 0 12 #fcfcfc #000000 #000000 0;
#X obj 1077 871 vradio 19 1 0 2 empty empty empty 0 -10 0 12 #fcfcfc #000000 #000000 0;
#X obj 1239 871 vradio 19 1 0 2 empty empty empty 0 -10 0 12 #fcfcfc #000000 #000000 0;
#X floatatom 1159 893 5 0 0 0 - - - 0;
#X floatatom 995 891 5 0 0 0 - - - 0;
#X floatatom 1321 892 5 0 0 0 - - - 0;
#X obj 1403 871 vradio 19 1 0 2 empty empty empty 0 -10 0 12 #fcfcfc #000000 #000000 0;
#X floatatom 1484 892 5 0 0 0 - - - 0;
#X floatatom 1564 892 5 0 0 0 - - - 0;
#X floatatom 1647 892 5 0 0 0 - - - 0;
#X floatatom 1728 892 5 0 0 0 - - - 0;
#X floatatom 1809 892 5 0 0 0 - - - 0;
#X obj 1892 887 bng 19 250 50 0 empty empty empty 0 -10 0 12 #fcfcfc #000000 #000000;
#X obj 915 817 r voz1Ativa_\$0, f 9;
#X obj 995 825 r voz1Harmonico_\$0, f 7;
#X obj 1564 837 r f1_\$0;
#X floatatom 19 938 5 0 0 0 - - - 0;
#X floatatom 271 945 5 0 0 0 - - - 0;
#X obj 554 940 s voz1Harmonico_\$0;
#X floatatom 181 866 5 0 0 0 - - - 0;
#X obj 19 914 shoggoth54, f 268;
#X obj 20 667 r trig4_\$0;
#X obj 20 759 s f4_\$0;
#X obj 96 593 r f4_\$0;
#X obj 109 662 r fIn4_\$0;
#X obj 182 640 r r4_\$0;
#X obj 345 668 r f4Min_\$0;
#X obj 434 668 r f4Max_\$0;
#X obj 508 639 r dDPossiveis4_\$0, f 8;
#X obj 589 639 r nDDistancias4_\$0, f 8;
#X obj 669 665 r mults4_\$0;
#X obj 752 666 r prox4_\$0;
#X obj 834 631 r proxTipo4_\$0, f 9;
#X obj 1078 618 r voz2Ativa_\$0, f 9;
#X obj 1160 628 r voz2Harmonico_\$0, f 7;
#X obj 1240 618 r voz3Ativa_\$0, f 9;
#X obj 1322 627 r voz3Harmonico_\$0, f 7;
#X obj 1648 638 r f2_\$0;
#X obj 1729 638 r f3_\$0;
#X obj 272 769 s voz4Harmonico_\$0;
#X obj 823 739 s voz2Harmonico_\$0;
#X obj 1092 742 s voz3Harmonico_\$0;
#X obj 95 792 r f5_\$0;
#X obj 19 866 r trig5_\$0;
#X obj 19 958 s f5_\$0;
#X obj 271 968 s voz5Harmonico_\$0;
#X obj 181 839 r r5_\$0;
#X obj 108 861 r fIn5_\$0;
#X obj 344 867 r f5Min_\$0;
#X obj 433 867 r f5Max_\$0;
#X obj 507 838 r dDPossiveis5_\$0, f 8;
#X obj 588 838 r nDDistancias5_\$0, f 8;
#X obj 669 864 r mults5_\$0;
#X obj 752 865 r prox5_\$0;
#X obj 833 830 r proxTipo5_\$0, f 9;
#X obj 1077 817 r voz2Ativa_\$0, f 9;
#X obj 1159 827 r voz2Harmonico_\$0, f 7;
#X obj 1239 817 r voz3Ativa_\$0, f 9;
#X obj 1321 826 r voz3Harmonico_\$0, f 7;
#X obj 1403 817 r voz4Ativa_\$0, f 9;
#X obj 1484 826 r voz4Harmonico_\$0, f 7;
#X obj 1647 837 r f2_\$0;
#X obj 1728 837 r f3_\$0;
#X obj 1809 837 r f4_\$0;
#X obj 822 938 s voz2Harmonico_\$0;
#X obj 1091 941 s voz3Harmonico_\$0;
#X obj 1356 943 s voz4Harmonico_\$0;
#X obj 1966 -275 loadbang;
#X obj 1966 -175 s lb_\$0;
#X obj 1966 -197 bng 19 250 50 0 empty empty empty 0 -10 0 12 #fcfcfc #000000 #000000;
#X floatatom -367 338 5 0 0 0 - - - 36;
#X floatatom -367 438 5 0 0 0 - - - 36;
#X floatatom -527 338 5 0 0 0 - - - 36;
#X floatatom -527 438 5 0 0 0 - - - 36;
#X obj -207 338 tgl 40 0 empty empty empty 0 -10 0 12 #ffc7c6 #00ff04 #000000 0 1;
#X obj -207 441 tgl 40 0 empty empty empty 0 -10 0 12 #ffc7c6 #00ff04 #000000 0 1;
#X obj -527 314 r f4_\$0;
#X obj -367 314 r voz4Harmonico_\$0;
#X obj -207 314 r voz4Ativa_\$0;
#X obj -367 414 r voz5Harmonico_\$0;
#X obj -207 417 r voz5Ativa_\$0;
#X obj -527 414 r f5_\$0;
#X obj 1039 -308 sel 121;
#X obj 1169 -149 sel 121;
#X floatatom 624 784 5 0 0 0 - - - 0;
#X floatatom 859 771 5 0 0 0 - - - 0;
#X floatatom 1114 778 5 0 0 0 - - - 0;
#X floatatom 1404 773 5 0 0 0 - - - 0;
#X obj -339 -645 t f f;
#X obj -339 -553 bng 19 250 50 0 empty empty empty 0 -10 0 12 #fcfcfc #000000 #000000;
#X obj -339 -577 sel 1;
#X obj -339 -601 !=;
#X obj -431 -299 vsl 19 162 0 127 0 0 pd4web_gui_1 pd4web_gui_2 empty 0 -9 0 12 #fcfcfc #000000 #000000 0 1;
#X obj -340 -894 / 127;
#X obj -340 -870 * 360;
#X floatatom -340 -846 5 0 0 0 - - - 0;
#X msg -340 -783 \$1 100;
#X obj -340 -759 vline~;
#X obj -340 -735 expr~ int($v1);
#X obj -340 -671 snapshot~;
#X obj -408 -742 tgl 19 0 empty empty empty 0 -10 0 12 #fcfcfc #000000 #000000 0 1;
#X obj -408 -718 metro 10;
#X obj -407 -805 loadbang;
#X obj -407 -781 del 5;
#X obj -340 -815 / 30;
#X obj -132 -553 + 1;
#X obj -466 -951 r x1;
#X obj -52 -851 r y1;
#X obj -132 -622 / 180;
#X obj -131 -647 + 90;
#X obj -132 -586 * 10;
#X obj -384 -307 vsl 19 162 0 127 0 0 pd4web_gui_3 pd4web_gui_4 empty 0 -9 0 12 #fcfcfc #000000 #000000 0 1;
#X obj -144 -788 * 180;
#X obj -139 -729 - 90;
#X obj -146 -831 / 127;
#X obj -502 -644 snapshot~;
#X obj -502 -620 t f f;
#X obj -502 -596 !=;
#X obj -459 -572 sel 1;
#X obj -459 -548 bng 19 250 50 0 empty empty empty 0 -10 0 12 #fcfcfc #000000 #000000;
#X obj -132 -498 vline~;
#X obj -132 -474 expr~ int($v1);
#X msg -132 -522 \$1 50;
#X obj -56 -403 del 1000;
#X obj -1379 1678 r lb_\$0;
#X msg -1379 1702 0.5;
#X msg -1268 1919 0.4;
#X obj -1179 2738 dac~ 1 2;
#X obj 153 771 r lb_\$0;
#X msg 153 795 1;
#X obj 155 569 r lb_\$0;
#X msg 155 593 1;
#X obj 153 357 r lb_\$0;
#X msg 153 381 1;
#X obj 154 179 r lb_\$0;
#X msg 154 203 1;
#X obj 153 -10 r lb_\$0;
#X msg 153 14 1;
#X obj -346 1014 r f1_\$0;
#X obj -279 1007 r f2_\$0;
#X obj -342 1156 osc~;
#X obj -342 1244 *~;
#X obj -188 1118 r aceleracao_\$0;
#X msg -188 1142 \$1 100;
#X obj -188 1166 vline~;
#X obj -342 1268 throw~ fold_\$0;
#X obj -226 1093 hsl 162 19 0 127 0 0 empty empty empty -2 -10 0 12 #fcfcfc #000000 #000000 0 1;
#X obj -190 1196 pow~ 2;
#X obj -279 1031 osc~;
#X obj -786 1071 t f f;
#X obj -787 1152 -;
#X floatatom -787 1198 5 0 0 0 - - - 0;
#X obj -787 1175 abs;
#X obj -783 1046 f;
#X obj -845 962 tgl 19 0 empty empty empty 0 -10 0 12 #fcfcfc #000000 #000000 0 1;
#X floatatom -802 961 5 0 0 0 - - - 0;
#X obj -787 1266 vline~;
#X obj -787 1289 *~;
#X obj -723 1257 *~;
#X obj -723 1234 osc~ 300;
#X obj -648 1233 osc~ 125;
#X msg -787 1243 \$1 200;
#X obj -788 1320 expr~ 1 - abs(remainder($v1 + 3 \, 4));
#X obj -849 908 loadbang;
#X obj -849 931 del 100;
#X msg -889 961 1;
#X obj -845 986 metro 10;
#X obj -344 1085 +~;
#X obj -279 1055 *~;
#X obj 157 -639 t f f;
#X obj 157 -547 bng 19 250 50 0 empty empty empty 0 -10 0 12 #fcfcfc #000000 #000000;
#X obj 157 -571 sel 1;
#X obj 157 -595 !=;
#X obj 156 -888 / 127;
#X obj 156 -864 * 360;
#X floatatom 156 -840 5 0 0 0 - - - 0;
#X msg 156 -777 \$1 100;
#X obj 156 -753 vline~;
#X obj 156 -729 expr~ int($v1);
#X obj 156 -665 snapshot~;
#X obj 168 -932 + 30;
#X obj 169 -493 del 1000;
#X obj 397 -636 t f f;
#X obj 397 -544 bng 19 250 50 0 empty empty empty 0 -10 0 12 #fcfcfc #000000 #000000;
#X obj 397 -568 sel 1;
#X obj 397 -592 !=;
#X obj 396 -885 / 127;
#X obj 396 -861 * 360;
#X floatatom 396 -837 5 0 0 0 - - - 0;
#X msg 396 -774 \$1 100;
#X obj 396 -750 vline~;
#X obj 396 -726 expr~ int($v1);
#X obj 396 -662 snapshot~;
#X obj 408 -929 + 30;
#X obj 409 -490 del 1000;
#X obj -229 1117 / 50;
#X obj -104 -954 + 15;
#X obj -252 -140 hsl 162 19 0 127 0 0 empty empty empty -2 -10 0 12 #fcfcfc #000000 #000000 0 1;
#X obj -257 -116 / 127;
#X obj -257 -91 * 360;
#X obj -257 -66 s x1;
#X obj 273 -890 + 15;
#X obj -788 1344 throw~ fold_\$0;
#X obj -1180 2343 expr~ 1 - abs(remainder($v1 + 3 \, 4));
#X obj -1180 2365 delay14~;
#X obj -1184 2604 *~ 1.5;
#X obj -1179 2656 expr~ 1 - abs(remainder($v1 + 3 \, 4));
#X obj 255 5 r lb_\$0;
#X msg 255 29 2;
#X msg 406 32 900;
#X obj 284 210 del 5;
#X msg 284 234 500 1500;
#X obj 284 258 unpack;
#X msg 600 22 0 1;
#X msg 343 33 200;
#X msg -1950 1251 300 3000;
#X obj -787 1220 / 2500;
#X msg 756 38 1;
#X obj -127 -292 del 2000;
#X obj 396 -806 / 50;
#X obj 156 -809 / 60;
#X obj 1879 -209 del 1;
#X obj 2053 -199 del 5;
#X obj 1893 81 r lb2_\$0;
#X obj 1893 271 r lb2_\$0;
#X obj 1893 451 r lb2_\$0;
#X obj 1893 661 r lb2_\$0;
#X obj 1892 860 r lb2_\$0;
#X obj 2113 -215 s lb2_\$0;
#X obj 1966 -220 del 4000;
#X obj 2083 -241 del 3000;
#X text -2267 1322 delay14~ \; normalize01~ \; poly13 \; vozBicho14~ \; mdc07 \; shoggoth54 \; prox06;
#X obj -2118 1009 declare -path Libs;
#X obj -760 997 r aX;
#X obj -54 -50 r x1_\$0;
#X connect 0 0 6 0;
#X connect 3 0 12 0;
#X connect 4 0 5 1;
#X connect 5 0 12 0;
#X connect 6 0 437 0;
#X connect 7 0 429 0;
#X connect 8 0 56 0;
#X connect 8 0 437 2;
#X connect 9 0 57 0;
#X connect 9 0 437 3;
#X connect 10 0 58 0;
#X connect 10 0 437 4;
#X connect 10 0 115 0;
#X connect 11 0 59 0;
#X connect 11 0 437 5;
#X connect 11 0 116 0;
#X connect 12 0 437 1;
#X connect 13 0 10 0;
#X connect 14 0 11 0;
#X connect 15 0 16 0;
#X connect 16 0 61 0;
#X connect 16 0 437 6;
#X connect 17 0 62 0;
#X connect 17 0 437 7;
#X connect 18 0 17 0;
#X connect 19 0 63 0;
#X connect 19 0 437 9;
#X connect 20 0 64 0;
#X connect 20 0 437 10;
#X connect 21 0 65 0;
#X connect 21 0 437 8;
#X connect 22 0 21 0;
#X connect 23 0 437 11;
#X connect 24 0 23 0;
#X connect 25 0 31 0;
#X connect 26 0 437 13;
#X connect 27 0 26 0;
#X connect 28 0 30 0;
#X connect 29 0 437 15;
#X connect 30 0 437 14;
#X connect 31 0 437 12;
#X connect 32 0 437 16;
#X connect 33 0 29 0;
#X connect 34 0 32 0;
#X connect 35 0 437 17;
#X connect 36 0 437 18;
#X connect 37 0 35 0;
#X connect 38 0 36 0;
#X connect 39 0 437 19;
#X connect 40 0 437 20;
#X connect 41 0 437 21;
#X connect 42 0 437 22;
#X connect 43 0 437 23;
#X connect 44 0 45 0;
#X connect 53 0 54 1;
#X connect 54 0 60 0;
#X connect 55 0 438 0;
#X connect 56 0 113 0;
#X connect 56 0 438 2;
#X connect 57 0 114 0;
#X connect 57 0 438 3;
#X connect 58 0 438 4;
#X connect 59 0 438 5;
#X connect 60 0 438 1;
#X connect 61 0 118 0;
#X connect 61 0 438 6;
#X connect 62 0 119 0;
#X connect 62 0 438 7;
#X connect 63 0 120 0;
#X connect 63 0 438 9;
#X connect 64 0 121 0;
#X connect 64 0 438 10;
#X connect 65 0 122 0;
#X connect 65 0 438 8;
#X connect 66 0 438 11;
#X connect 67 0 438 13;
#X connect 68 0 67 0;
#X connect 69 0 71 0;
#X connect 70 0 438 15;
#X connect 71 0 438 14;
#X connect 72 0 438 12;
#X connect 73 0 438 16;
#X connect 74 0 70 0;
#X connect 75 0 73 0;
#X connect 76 0 438 17;
#X connect 77 0 438 18;
#X connect 78 0 76 0;
#X connect 79 0 77 0;
#X connect 80 0 438 19;
#X connect 81 0 438 20;
#X connect 82 0 438 21;
#X connect 83 0 438 22;
#X connect 84 0 438 23;
#X connect 88 0 54 0;
#X connect 89 0 55 0;
#X connect 90 0 60 0;
#X connect 91 0 58 0;
#X connect 92 0 59 0;
#X connect 93 0 61 0;
#X connect 94 0 62 0;
#X connect 95 0 65 0;
#X connect 96 0 19 0;
#X connect 97 0 63 0;
#X connect 98 0 20 0;
#X connect 99 0 64 0;
#X connect 100 0 66 0;
#X connect 101 0 72 0;
#X connect 102 0 80 0;
#X connect 103 0 39 0;
#X connect 104 0 40 0;
#X connect 105 0 41 0;
#X connect 106 0 42 0;
#X connect 107 0 81 0;
#X connect 108 0 82 0;
#X connect 109 0 83 0;
#X connect 110 0 111 1;
#X connect 111 0 117 0;
#X connect 112 0 439 0;
#X connect 113 0 483 0;
#X connect 113 0 439 2;
#X connect 114 0 484 0;
#X connect 114 0 439 3;
#X connect 115 0 485 0;
#X connect 115 0 439 4;
#X connect 116 0 486 0;
#X connect 116 0 439 5;
#X connect 117 0 439 1;
#X connect 118 0 488 0;
#X connect 118 0 439 6;
#X connect 119 0 489 0;
#X connect 119 0 439 7;
#X connect 120 0 490 0;
#X connect 120 0 439 9;
#X connect 121 0 491 0;
#X connect 121 0 439 10;
#X connect 122 0 492 0;
#X connect 122 0 439 8;
#X connect 123 0 439 11;
#X connect 124 0 439 13;
#X connect 125 0 439 15;
#X connect 126 0 439 14;
#X connect 127 0 439 12;
#X connect 128 0 439 16;
#X connect 129 0 125 0;
#X connect 130 0 128 0;
#X connect 131 0 439 17;
#X connect 132 0 439 18;
#X connect 133 0 131 0;
#X connect 134 0 132 0;
#X connect 135 0 439 19;
#X connect 136 0 439 20;
#X connect 137 0 439 21;
#X connect 138 0 439 22;
#X connect 139 0 439 23;
#X connect 142 0 127 0;
#X connect 143 0 135 0;
#X connect 144 0 137 0;
#X connect 145 0 138 0;
#X connect 150 0 112 0;
#X connect 151 0 111 0;
#X connect 152 0 117 0;
#X connect 153 0 115 0;
#X connect 154 0 116 0;
#X connect 155 0 118 0;
#X connect 156 0 119 0;
#X connect 157 0 122 0;
#X connect 158 0 120 0;
#X connect 159 0 121 0;
#X connect 160 0 123 0;
#X connect 161 0 124 0;
#X connect 162 0 126 0;
#X connect 163 0 136 0;
#X connect 164 0 165 0;
#X connect 165 0 468 0;
#X connect 166 0 173 0;
#X connect 167 0 470 0;
#X connect 168 0 171 0;
#X connect 168 0 176 0;
#X connect 169 0 167 0;
#X connect 170 0 172 0;
#X connect 171 0 170 1;
#X connect 172 0 175 0;
#X connect 173 0 174 0;
#X connect 173 1 170 0;
#X connect 174 0 170 1;
#X connect 175 0 178 0;
#X connect 176 0 177 0;
#X connect 178 0 177 0;
#X connect 178 1 179 0;
#X connect 178 1 428 0;
#X connect 180 0 181 0;
#X connect 181 0 469 0;
#X connect 182 0 189 0;
#X connect 183 0 471 0;
#X connect 184 0 187 0;
#X connect 184 0 192 0;
#X connect 185 0 183 0;
#X connect 186 0 188 0;
#X connect 187 0 186 1;
#X connect 188 0 191 0;
#X connect 189 0 190 0;
#X connect 189 1 186 0;
#X connect 190 0 186 1;
#X connect 191 0 193 0;
#X connect 192 0 195 0;
#X connect 193 0 195 0;
#X connect 193 1 194 0;
#X connect 196 0 197 0;
#X connect 197 0 473 0;
#X connect 198 0 205 0;
#X connect 199 0 472 0;
#X connect 200 0 203 0;
#X connect 200 0 208 0;
#X connect 201 0 199 0;
#X connect 202 0 204 0;
#X connect 203 0 202 1;
#X connect 204 0 207 0;
#X connect 205 0 206 0;
#X connect 205 1 202 0;
#X connect 206 0 202 1;
#X connect 207 0 209 0;
#X connect 208 0 211 0;
#X connect 209 0 211 0;
#X connect 209 1 210 0;
#X connect 212 0 147 0;
#X connect 213 0 47 0;
#X connect 214 0 215 0;
#X connect 215 0 736 0;
#X connect 216 0 217 0;
#X connect 217 0 219 0;
#X connect 218 0 223 0;
#X connect 219 0 220 0;
#X connect 220 0 218 0;
#X connect 221 0 220 0;
#X connect 222 0 146 0;
#X connect 223 0 215 1;
#X connect 225 0 224 0;
#X connect 226 0 227 0;
#X connect 228 0 229 0;
#X connect 232 0 231 0;
#X connect 234 0 233 0;
#X connect 236 0 235 0;
#X connect 238 0 237 0;
#X connect 239 0 242 0;
#X connect 241 0 230 0;
#X connect 244 0 245 0;
#X connect 246 0 271 0;
#X connect 246 1 257 0;
#X connect 246 2 255 0;
#X connect 246 3 251 0;
#X connect 246 4 247 0;
#X connect 247 0 249 0;
#X connect 248 0 247 1;
#X connect 249 0 318 0;
#X connect 250 0 249 1;
#X connect 251 0 252 0;
#X connect 252 0 318 0;
#X connect 253 0 251 1;
#X connect 254 0 252 1;
#X connect 255 0 256 0;
#X connect 256 0 318 0;
#X connect 257 0 258 0;
#X connect 258 0 318 0;
#X connect 259 0 260 0;
#X connect 260 0 318 0;
#X connect 261 0 270 0;
#X connect 261 0 318 1;
#X connect 262 0 272 0;
#X connect 264 0 255 1;
#X connect 265 0 256 1;
#X connect 266 0 257 1;
#X connect 267 0 258 1;
#X connect 268 0 259 1;
#X connect 268 0 263 0;
#X connect 269 0 260 1;
#X connect 271 0 312 0;
#X connect 271 1 259 0;
#X connect 272 0 279 0;
#X connect 272 1 278 0;
#X connect 272 2 277 0;
#X connect 272 3 275 0;
#X connect 272 4 273 0;
#X connect 273 0 297 0;
#X connect 274 0 273 1;
#X connect 275 0 294 0;
#X connect 276 0 275 1;
#X connect 277 0 291 0;
#X connect 278 0 288 0;
#X connect 279 0 284 0;
#X connect 281 0 277 1;
#X connect 282 0 278 1;
#X connect 283 0 279 1;
#X connect 283 0 280 0;
#X connect 284 0 286 0;
#X connect 285 0 284 1;
#X connect 286 0 306 0;
#X connect 286 0 313 0;
#X connect 287 0 286 1;
#X connect 288 0 289 0;
#X connect 289 0 307 0;
#X connect 289 0 314 0;
#X connect 290 0 289 1;
#X connect 291 0 292 0;
#X connect 292 0 308 0;
#X connect 292 0 315 0;
#X connect 293 0 292 1;
#X connect 294 0 295 0;
#X connect 295 0 309 0;
#X connect 295 0 316 0;
#X connect 296 0 295 1;
#X connect 297 0 298 0;
#X connect 298 0 310 0;
#X connect 298 0 317 0;
#X connect 299 0 298 1;
#X connect 300 0 297 1;
#X connect 301 0 294 1;
#X connect 302 0 291 1;
#X connect 303 0 288 1;
#X connect 304 0 318 1;
#X connect 305 0 246 0;
#X connect 305 1 304 0;
#X connect 311 0 305 0;
#X connect 312 1 262 0;
#X connect 318 2 261 0;
#X connect 319 0 324 0;
#X connect 320 0 324 0;
#X connect 321 0 324 0;
#X connect 322 0 324 0;
#X connect 323 0 324 0;
#X connect 324 0 325 0;
#X connect 326 0 327 0;
#X connect 329 0 328 0;
#X connect 331 0 330 0;
#X connect 333 0 367 0;
#X connect 334 0 333 0;
#X connect 334 1 367 1;
#X connect 335 0 367 2;
#X connect 336 0 367 4;
#X connect 337 0 367 5;
#X connect 338 0 333 1;
#X connect 339 0 368 0;
#X connect 340 0 339 0;
#X connect 340 1 368 1;
#X connect 341 0 368 2;
#X connect 342 0 368 3;
#X connect 343 0 368 4;
#X connect 344 0 368 5;
#X connect 345 0 372 0;
#X connect 346 0 345 0;
#X connect 346 1 372 1;
#X connect 347 0 372 2;
#X connect 348 0 372 3;
#X connect 349 0 372 4;
#X connect 350 0 345 1;
#X connect 351 0 373 0;
#X connect 352 0 351 0;
#X connect 352 1 373 1;
#X connect 353 0 373 2;
#X connect 354 0 373 3;
#X connect 355 0 373 4;
#X connect 356 0 351 1;
#X connect 357 0 339 1;
#X connect 358 0 366 0;
#X connect 358 0 421 0;
#X connect 359 0 358 0;
#X connect 359 1 366 1;
#X connect 360 0 366 2;
#X connect 361 0 366 3;
#X connect 362 0 366 4;
#X connect 363 0 366 5;
#X connect 364 0 358 1;
#X connect 366 0 375 0;
#X connect 367 0 383 0;
#X connect 368 0 390 0;
#X connect 370 0 371 0;
#X connect 371 0 366 6;
#X connect 371 0 367 6;
#X connect 371 0 368 6;
#X connect 371 0 372 6;
#X connect 371 0 373 6;
#X connect 372 0 397 0;
#X connect 373 0 404 0;
#X connect 374 0 371 0;
#X connect 375 0 382 0;
#X connect 376 0 377 0;
#X connect 377 0 379 0;
#X connect 378 0 423 0;
#X connect 379 0 381 0;
#X connect 380 0 381 0;
#X connect 381 0 378 0;
#X connect 383 0 389 0;
#X connect 384 0 385 0;
#X connect 385 0 387 0;
#X connect 386 0 422 0;
#X connect 387 0 388 0;
#X connect 388 0 386 0;
#X connect 390 0 396 0;
#X connect 391 0 392 0;
#X connect 392 0 394 0;
#X connect 393 0 424 0;
#X connect 394 0 395 0;
#X connect 395 0 393 0;
#X connect 397 0 403 0;
#X connect 398 0 399 0;
#X connect 399 0 401 0;
#X connect 400 0 425 0;
#X connect 401 0 402 0;
#X connect 402 0 400 0;
#X connect 404 0 411 0;
#X connect 405 0 406 0;
#X connect 406 0 408 0;
#X connect 407 0 409 0;
#X connect 408 0 410 0;
#X connect 409 0 404 1;
#X connect 410 0 407 0;
#X connect 412 0 410 0;
#X connect 413 0 402 0;
#X connect 414 0 395 0;
#X connect 415 0 388 0;
#X connect 416 0 359 0;
#X connect 417 0 334 0;
#X connect 418 0 340 0;
#X connect 419 0 346 0;
#X connect 420 0 352 0;
#X connect 422 0 383 1;
#X connect 423 0 375 1;
#X connect 424 0 390 1;
#X connect 425 0 397 1;
#X connect 426 0 367 3;
#X connect 429 0 8 0;
#X connect 429 0 9 0;
#X connect 430 0 56 0;
#X connect 430 0 57 0;
#X connect 431 0 430 0;
#X connect 432 0 113 0;
#X connect 432 0 114 0;
#X connect 433 0 432 0;
#X connect 434 0 748 0;
#X connect 435 0 225 0;
#X connect 435 1 226 0;
#X connect 436 0 5 0;
#X connect 437 0 213 0;
#X connect 437 1 48 0;
#X connect 437 2 49 0;
#X connect 437 3 51 0;
#X connect 437 4 50 0;
#X connect 437 5 52 0;
#X connect 438 0 212 0;
#X connect 438 1 239 0;
#X connect 438 2 243 0;
#X connect 438 3 86 0;
#X connect 438 4 85 0;
#X connect 438 5 87 0;
#X connect 439 0 222 0;
#X connect 439 1 244 0;
#X connect 439 2 148 0;
#X connect 439 3 149 0;
#X connect 439 4 140 0;
#X connect 439 5 141 0;
#X connect 440 0 441 0;
#X connect 441 0 474 0;
#X connect 442 0 449 0;
#X connect 443 0 475 0;
#X connect 444 0 447 0;
#X connect 444 0 452 0;
#X connect 445 0 443 0;
#X connect 446 0 448 0;
#X connect 447 0 446 1;
#X connect 448 0 451 0;
#X connect 449 0 450 0;
#X connect 449 1 446 0;
#X connect 450 0 446 1;
#X connect 451 0 453 0;
#X connect 452 0 476 0;
#X connect 453 0 476 0;
#X connect 453 1 479 0;
#X connect 454 0 455 0;
#X connect 455 0 615 0;
#X connect 456 0 463 0;
#X connect 457 0 616 0;
#X connect 458 0 461 0;
#X connect 458 0 466 0;
#X connect 459 0 457 0;
#X connect 460 0 462 0;
#X connect 461 0 460 1;
#X connect 462 0 465 0;
#X connect 463 0 464 0;
#X connect 463 1 460 0;
#X connect 464 0 460 1;
#X connect 465 0 467 0;
#X connect 466 0 477 0;
#X connect 467 0 477 0;
#X connect 467 1 478 0;
#X connect 468 0 166 0;
#X connect 469 0 182 0;
#X connect 470 0 168 0;
#X connect 471 0 184 0;
#X connect 472 0 200 0;
#X connect 473 0 198 0;
#X connect 474 0 442 0;
#X connect 475 0 444 0;
#X connect 480 0 481 1;
#X connect 481 0 487 0;
#X connect 482 0 519 0;
#X connect 483 0 523 0;
#X connect 483 0 519 2;
#X connect 484 0 524 0;
#X connect 484 0 519 3;
#X connect 485 0 525 0;
#X connect 485 0 519 4;
#X connect 486 0 526 0;
#X connect 486 0 519 5;
#X connect 487 0 519 1;
#X connect 488 0 528 0;
#X connect 488 0 519 6;
#X connect 489 0 529 0;
#X connect 489 0 519 7;
#X connect 490 0 530 0;
#X connect 490 0 519 9;
#X connect 491 0 531 0;
#X connect 491 0 519 10;
#X connect 492 0 532 0;
#X connect 492 0 519 8;
#X connect 493 0 519 11;
#X connect 494 0 519 13;
#X connect 495 0 519 15;
#X connect 496 0 519 14;
#X connect 497 0 519 12;
#X connect 498 0 519 16;
#X connect 499 0 519 17;
#X connect 500 0 519 18;
#X connect 501 0 499 0;
#X connect 502 0 500 0;
#X connect 503 0 519 19;
#X connect 504 0 519 20;
#X connect 505 0 519 21;
#X connect 506 0 519 22;
#X connect 507 0 519 23;
#X connect 509 0 493 0;
#X connect 510 0 497 0;
#X connect 511 0 503 0;
#X connect 512 0 506 0;
#X connect 513 0 514 0;
#X connect 515 0 555 0;
#X connect 516 0 572 0;
#X connect 518 0 483 0;
#X connect 518 0 484 0;
#X connect 519 0 515 0;
#X connect 519 1 516 0;
#X connect 519 2 517 0;
#X connect 519 2 617 0;
#X connect 519 3 573 0;
#X connect 519 3 618 0;
#X connect 519 4 574 0;
#X connect 519 4 619 0;
#X connect 519 5 508 0;
#X connect 519 5 620 0;
#X connect 520 0 521 1;
#X connect 521 0 527 0;
#X connect 522 0 553 0;
#X connect 523 0 553 2;
#X connect 524 0 553 3;
#X connect 525 0 553 4;
#X connect 526 0 553 5;
#X connect 527 0 553 1;
#X connect 528 0 553 6;
#X connect 529 0 553 7;
#X connect 530 0 553 9;
#X connect 531 0 553 10;
#X connect 532 0 553 8;
#X connect 533 0 553 11;
#X connect 534 0 553 13;
#X connect 535 0 553 15;
#X connect 536 0 553 14;
#X connect 537 0 553 12;
#X connect 538 0 553 16;
#X connect 539 0 553 17;
#X connect 540 0 553 18;
#X connect 541 0 553 19;
#X connect 542 0 553 20;
#X connect 543 0 553 21;
#X connect 544 0 553 22;
#X connect 545 0 553 23;
#X connect 546 0 533 0;
#X connect 547 0 537 0;
#X connect 548 0 541 0;
#X connect 549 0 577 0;
#X connect 550 0 578 0;
#X connect 552 0 523 0;
#X connect 552 0 524 0;
#X connect 553 0 549 0;
#X connect 553 1 550 0;
#X connect 553 2 551 0;
#X connect 553 3 597 0;
#X connect 553 4 598 0;
#X connect 553 5 599 0;
#X connect 554 0 482 0;
#X connect 556 0 481 0;
#X connect 557 0 487 0;
#X connect 558 0 518 0;
#X connect 559 0 485 0;
#X connect 560 0 486 0;
#X connect 561 0 488 0;
#X connect 562 0 489 0;
#X connect 563 0 492 0;
#X connect 564 0 490 0;
#X connect 565 0 491 0;
#X connect 566 0 494 0;
#X connect 567 0 496 0;
#X connect 568 0 495 0;
#X connect 569 0 498 0;
#X connect 570 0 504 0;
#X connect 571 0 505 0;
#X connect 575 0 521 0;
#X connect 576 0 522 0;
#X connect 579 0 552 0;
#X connect 580 0 527 0;
#X connect 581 0 525 0;
#X connect 582 0 526 0;
#X connect 583 0 528 0;
#X connect 584 0 529 0;
#X connect 585 0 532 0;
#X connect 586 0 530 0;
#X connect 587 0 531 0;
#X connect 588 0 534 0;
#X connect 589 0 536 0;
#X connect 590 0 535 0;
#X connect 591 0 538 0;
#X connect 592 0 539 0;
#X connect 593 0 540 0;
#X connect 594 0 542 0;
#X connect 595 0 543 0;
#X connect 596 0 544 0;
#X connect 600 0 762 0;
#X connect 600 0 763 0;
#X connect 602 0 601 0;
#X connect 609 0 605 0;
#X connect 610 0 603 0;
#X connect 611 0 607 0;
#X connect 612 0 604 0;
#X connect 613 0 608 0;
#X connect 614 0 606 0;
#X connect 615 0 456 0;
#X connect 616 0 458 0;
#X connect 621 0 624 1;
#X connect 621 1 624 0;
#X connect 622 0 656 0;
#X connect 622 0 172 0;
#X connect 623 0 622 0;
#X connect 624 0 623 0;
#X connect 625 0 626 0;
#X connect 625 0 713 0;
#X connect 626 0 627 0;
#X connect 627 0 628 0;
#X connect 628 0 637 0;
#X connect 629 0 630 0;
#X connect 630 0 631 0;
#X connect 631 0 632 0;
#X connect 632 0 621 0;
#X connect 633 0 634 0;
#X connect 634 0 632 0;
#X connect 634 0 648 0;
#X connect 634 0 712 0;
#X connect 634 0 725 0;
#X connect 635 0 636 0;
#X connect 636 0 633 0;
#X connect 637 0 629 0;
#X connect 638 0 655 0;
#X connect 639 0 729 0;
#X connect 639 0 637 0;
#X connect 640 0 642 0;
#X connect 641 0 643 0;
#X connect 642 0 641 0;
#X connect 643 0 638 0;
#X connect 644 0 647 0;
#X connect 645 0 646 0;
#X connect 646 0 642 0;
#X connect 647 0 645 0;
#X connect 648 0 649 0;
#X connect 649 0 650 1;
#X connect 649 1 650 0;
#X connect 650 0 651 0;
#X connect 651 0 652 0;
#X connect 652 0 188 0;
#X connect 652 0 751 0;
#X connect 653 0 654 0;
#X connect 654 0 648 0;
#X connect 655 0 653 0;
#X connect 656 0 168 0;
#X connect 657 0 658 0;
#X connect 658 0 379 0;
#X connect 658 0 387 0;
#X connect 658 0 394 0;
#X connect 658 0 401 0;
#X connect 658 0 408 0;
#X connect 658 0 659 0;
#X connect 659 0 219 0;
#X connect 661 0 662 0;
#X connect 662 0 520 0;
#X connect 663 0 664 0;
#X connect 664 0 480 0;
#X connect 665 0 666 0;
#X connect 666 0 110 0;
#X connect 667 0 668 0;
#X connect 668 0 53 0;
#X connect 669 0 670 0;
#X connect 670 0 4 0;
#X connect 671 0 700 0;
#X connect 671 0 701 1;
#X connect 671 0 692 0;
#X connect 672 0 681 0;
#X connect 672 0 693 0;
#X connect 673 0 674 0;
#X connect 674 0 678 0;
#X connect 675 0 676 0;
#X connect 676 0 677 0;
#X connect 677 0 680 0;
#X connect 679 0 728 0;
#X connect 680 0 674 1;
#X connect 681 0 701 0;
#X connect 682 0 683 1;
#X connect 682 1 683 0;
#X connect 683 0 685 0;
#X connect 684 0 749 0;
#X connect 685 0 684 0;
#X connect 686 0 682 0;
#X connect 687 0 699 0;
#X connect 688 0 699 1;
#X connect 689 0 690 0;
#X connect 690 0 695 0;
#X connect 691 0 690 1;
#X connect 692 0 691 0;
#X connect 693 0 691 1;
#X connect 694 0 689 0;
#X connect 695 0 735 0;
#X connect 696 0 697 0;
#X connect 697 0 698 0;
#X connect 698 0 687 0;
#X connect 699 0 686 0;
#X connect 700 0 673 0;
#X connect 701 0 700 1;
#X connect 702 0 705 1;
#X connect 702 1 705 0;
#X connect 703 0 714 0;
#X connect 703 0 204 0;
#X connect 704 0 703 0;
#X connect 705 0 704 0;
#X connect 706 0 707 0;
#X connect 707 0 708 0;
#X connect 708 0 753 0;
#X connect 709 0 710 0;
#X connect 710 0 711 0;
#X connect 711 0 712 0;
#X connect 712 0 702 0;
#X connect 713 0 706 0;
#X connect 713 0 726 0;
#X connect 714 0 200 0;
#X connect 715 0 718 1;
#X connect 715 1 718 0;
#X connect 716 0 727 0;
#X connect 716 0 448 0;
#X connect 717 0 716 0;
#X connect 718 0 717 0;
#X connect 719 0 720 0;
#X connect 720 0 721 0;
#X connect 721 0 752 0;
#X connect 722 0 723 0;
#X connect 723 0 724 0;
#X connect 724 0 725 0;
#X connect 725 0 715 0;
#X connect 726 0 719 0;
#X connect 727 0 444 0;
#X connect 728 0 676 0;
#X connect 729 0 734 0;
#X connect 729 0 753 0;
#X connect 730 0 731 0;
#X connect 731 0 732 0;
#X connect 732 0 733 0;
#X connect 734 0 752 0;
#X connect 736 0 737 0;
#X connect 737 0 738 0;
#X connect 738 0 739 0;
#X connect 739 0 660 0;
#X connect 739 0 660 1;
#X connect 740 0 741 0;
#X connect 741 0 429 0;
#X connect 741 0 747 0;
#X connect 741 0 742 0;
#X connect 741 0 743 0;
#X connect 741 0 746 0;
#X connect 742 0 11 0;
#X connect 743 0 744 0;
#X connect 744 0 745 0;
#X connect 745 0 58 0;
#X connect 745 1 59 0;
#X connect 746 0 17 0;
#X connect 746 0 750 0;
#X connect 747 0 10 0;
#X connect 748 0 435 0;
#X connect 749 0 694 0;
#X connect 750 0 19 0;
#X connect 751 0 184 0;
#X connect 752 0 722 0;
#X connect 753 0 709 0;
#X connect 754 0 602 0;
#X connect 755 0 602 0;
#X connect 756 0 43 0;
#X connect 757 0 84 0;
#X connect 758 0 139 0;
#X connect 759 0 507 0;
#X connect 760 0 545 0;
#X connect 762 0 602 0;
#X connect 762 0 754 0;
#X connect 762 0 755 0;
#X connect 763 0 761 0;
#X connect 766 0 686 1;
#X connect 767 0 741 0;
