#N canvas 104 42 465 657 10;
#X obj 60 511 dac~;
#X obj 217 22 noise~;
#X obj 217 89 *~;
#X obj 217 63 lop~ 2;
#X obj 217 42 lop~ 2;
#X obj 217 111 *~ 500;
#X obj 138 74 -~ 1;
#X obj 217 135 +~ 20;
#X obj 29 59 noise~;
#X obj 29 119 max~ 0;
#X obj 29 99 lop~ 0.1;
#X obj 29 79 lop~ 0.1;
#X obj 29 139 *~ 700;
#X obj 138 153 *~;
#X obj 138 179 clip~ -0.9 0.1;
#X obj 0 441 *~ 0.6;
#X obj 0 419 *~;
#X obj 72 358 clip~ 0 1;
#X obj 72 337 *~ 1e+09;
#X obj 72 379 lop~ 30;
#X obj 72 295 max~ 0.1;
#X obj 72 316 -~ 0.1;
#X obj 72 232 lop~ 15;
#X obj 72 253 lop~ 15;
#X obj 72 274 *~ 500;
#X obj 29 159 +~ 3;
#X obj 175 360 *~ 0.05;
#X obj 175 313 threshold~ 0.03 0 0 0;
#X obj 138 0 phasor~ 100.2;
#X obj 0 24 phasor~ -95.9;
#X obj 0 181 Libs/chplz;
#X obj 0 206 Libs/randgate 3 0.0008;
#X obj 175 336 Libs/snap 1.8;
#X obj 59 486 Libs/comb1 80 0.2;
#X connect 1 0 4 0;
#X connect 2 0 5 0;
#X connect 3 0 2 0;
#X connect 3 0 2 1;
#X connect 4 0 3 0;
#X connect 5 0 7 0;
#X connect 5 0 13 1;
#X connect 6 0 13 0;
#X connect 7 0 33 0;
#X connect 8 0 11 0;
#X connect 9 0 12 0;
#X connect 10 0 9 0;
#X connect 11 0 10 0;
#X connect 12 0 25 0;
#X connect 13 0 14 0;
#X connect 14 0 22 0;
#X connect 14 0 27 0;
#X connect 14 0 33 1;
#X connect 15 0 33 1;
#X connect 16 0 15 0;
#X connect 17 0 19 0;
#X connect 18 0 17 0;
#X connect 19 0 16 1;
#X connect 20 0 21 0;
#X connect 21 0 18 0;
#X connect 22 0 23 0;
#X connect 23 0 24 0;
#X connect 24 0 20 0;
#X connect 25 0 30 1;
#X connect 26 0 33 1;
#X connect 27 0 32 0;
#X connect 28 0 6 0;
#X connect 29 0 6 0;
#X connect 29 0 30 0;
#X connect 30 0 31 0;
#X connect 31 0 16 0;
#X connect 32 0 26 0;
#X connect 33 0 0 0;
#X connect 33 0 0 1;
